<svg width="16" height="16" viewBox="0 0 16 16" fill="none" xmlns="http://www.w3.org/2000/svg">
<path fill-rule="evenodd" clip-rule="evenodd" d="M5.85355 4.64645C5.65829 4.45118 5.34171 4.45118 5.14645 4.64645L2.14645 7.64645C1.95118 7.84171 1.95118 8.15829 2.14645 8.35355L5.14645 11.3536C5.34171 11.5488 5.65829 11.5488 5.85355 11.3536C6.04882 11.1583 6.04882 10.8417 5.85355 10.6464L3.20711 8L5.85355 5.35355C6.04882 5.15829 6.04882 4.84171 5.85355 4.64645Z" fill="white"/>
<path fill-rule="evenodd" clip-rule="evenodd" d="M10 8C10 7.72386 9.77614 7.5 9.5 7.5L3 7.5C2.72386 7.5 2.5 7.72386 2.5 8C2.5 8.27614 2.72386 8.5 3 8.5L9.5 8.5C9.77614 8.5 10 8.27614 10 8Z" fill="white"/>
<path fill-rule="evenodd" clip-rule="evenodd" d="M12.5 14C12.2239 14 12 13.7761 12 13.5L12 2.5C12 2.22386 12.2239 2 12.5 2C12.7761 2 13 2.22386 13 2.5V13.5C13 13.7761 12.7761 14 12.5 14Z" fill="white"/>
</svg>
