<svg width="61" height="71" viewBox="0 0 61 71" fill="none" xmlns="http://www.w3.org/2000/svg">
<path fill-rule="evenodd" clip-rule="evenodd" d="M47.9273 15.1768V30.1768H42.9273V15.1768H47.9273ZM30.4272 15.1768H35.4272V30.1768H30.4272V15.1768ZM12.9272 0.176758L0.427246 12.6768V57.6768H15.4272V70.1768L27.9272 57.6768H37.9272L60.4273 35.1768V0.176758H12.9272ZM55.4273 32.6768L45.4273 42.6768H35.4272L25.4272 52.6768V42.6768H15.4272V5.17676H55.4273V32.6768Z" fill="#6441A5"/>
<path fill-rule="evenodd" clip-rule="evenodd" d="M45.4272 42.6768L55.4272 32.6768V5.17676H15.4272V42.6768H25.4272V52.6768L35.4272 42.6768H45.4272ZM30.4272 15.1768H35.4272V30.1768H30.4272V15.1768ZM47.9272 15.1768H42.9272V30.1768H47.9272V15.1768Z" fill="white"/>
</svg>
