<svg width="16" height="16" viewBox="0 0 16 16" fill="none" xmlns="http://www.w3.org/2000/svg">
<path fill-rule="evenodd" clip-rule="evenodd" d="M0.5 7.99999C0.776142 7.99999 1 8.22385 1 8.49999V12C1 12.5523 1.44772 13 2 13H14C14.5523 13 15 12.5523 15 12V8.49999C15 8.22385 15.2239 7.99999 15.5 7.99999C15.7761 7.99999 16 8.22385 16 8.49999V12C16 13.1046 15.1046 14 14 14H2C0.895431 14 0 13.1046 0 12V8.49999C0 8.22385 0.223858 7.99999 0.5 7.99999Z" fill="#EEEEF0"/>
<path fill-rule="evenodd" clip-rule="evenodd" d="M4.99999 4.85355C5.19525 5.04881 5.51184 5.04881 5.7071 4.85355L7.99999 2.56065L10.2929 4.85357C10.4881 5.04883 10.8047 5.04883 11 4.85357C11.1953 4.65831 11.1953 4.34172 11 4.14646L8.35355 1.49999C8.15828 1.30473 7.8417 1.30473 7.64644 1.49999L4.99999 4.14644C4.80473 4.3417 4.80473 4.65828 4.99999 4.85355Z" fill="#EEEEF0"/>
<path fill-rule="evenodd" clip-rule="evenodd" d="M8 1.99999C8.27614 1.99999 8.5 2.22385 8.5 2.49999V10.5C8.5 10.7761 8.27614 11 8 11C7.72386 11 7.5 10.7761 7.5 10.5V2.49999C7.5 2.22385 7.72386 1.99999 8 1.99999Z" fill="#EEEEF0"/>
</svg>
